# xmcd
#
# Track frame offsets:
#	187
#	15155
#	25212
#	38407
#	50267
#	63190
#	77672
#	90487
#	105192
#	119757
#
# Disc length: 1799 seconds
#
# Revision: 4
# Processed by: cddbd v1.5.2PL0 Copyright (c) Steve Scherf et al.
# Submitted via: EasyCDDAExtractor 15.2.5.1
#
DISCID=6307050a
DTITLE=George Strait - Something Special
DYEAR=1985
DGENRE=Country
TTITLE0=You're Something Special To Me
TTITLE1=Last Time The First Time
TTITLE2=Haven't You Heard
TTITLE3=In Too Deep
TTITLE4=Blue Is Not A Word
TTITLE5=You Sure Got This Ol' Redneck Feelin' Blue
TTITLE6=The Chair
TTITLE7=Dance Time In Texas
TTITLE8=Lefty's Gone
TTITLE9=I've Seen That Look On Me (A Thousand Times)
EXTD=
EXTT0=
EXTT1=
EXTT2=
EXTT3=
EXTT4=
EXTT5=
EXTT6=
EXTT7=
EXTT8=
EXTT9=
PLAYORDER=
